<?xml version="1.0" encoding="utf-8"?>
<!-- Generator: Adobe Illustrator 21.1.0, SVG Export Plug-In . SVG Version: 6.00 Build 0)  -->
<svg version="1.1" id="Слой_1" xmlns="http://www.w3.org/2000/svg" xmlns:xlink="http://www.w3.org/1999/xlink" x="0px" y="0px"
	 viewBox="0 0 24 24" style="enable-background:new 0 0 24 24;" xml:space="preserve">
<style type="text/css">
	.st0{fill:#FFFFFF;}
</style>
<path class="st0" d="M6.6,6.6h4.7V5.3H6.6c-0.7,0-1.3,0.6-1.3,1.3v4.7h1.3V6.6z M10.6,12.7L7.9,16H16l-2-2.7l-1.4,1.8L10.6,12.7z
	 M15.4,9.6c0-0.6-0.5-1-1-1c-0.6,0-1,0.5-1,1c0,0.6,0.5,1,1,1C14.9,10.6,15.4,10.2,15.4,9.6z M17.4,5.3h-4.7v1.3h4.7v4.7h1.4V6.6
	C18.8,5.9,18.1,5.3,17.4,5.3z M17.4,17.4h-4.7v1.4h4.7c0.7,0,1.4-0.6,1.4-1.4v-4.7h-1.4V17.4z M6.6,12.7H5.3v4.7
	c0,0.7,0.6,1.4,1.3,1.4h4.7v-1.4H6.6V12.7z"/>
</svg>
