<?xml version="1.0" ?><svg enable-background="new 0 0 176.7967 185.605" id="playstore" version="1.1" viewBox="0 0 176.7967 185.605" xml:space="preserve" xmlns="http://www.w3.org/2000/svg" xmlns:xlink="http://www.w3.org/1999/xlink"><path fill="white" d="M168.828,81.7342L20.004,2.1638C14.996-0.5122,9.9179-0.715,6.0663,1.605C2.2107,3.9138,0,8.4802,0,14.1246v157.3712  c0,5.6288,2.2147,10.1876,6.0779,12.504c1.7892,1.07,3.836,1.6052,6.0156,1.6052c2.5276,0,5.2308-0.7224,7.9105-2.1524  l148.824-79.57c6.9335-3.7032,7.9687-8.5276,7.9687-11.0704C176.7967,90.2654,175.7615,85.441,168.828,81.7342z M165.0547,96.8278  L16.2303,176.3982c-2.4412,1.3044-4.6484,1.574-6.0388,0.738C8.7967,176.3006,8,174.2458,8,171.4958V14.1246  c0-2.7656,0.7927-4.828,2.1795-5.66c0.5276-0.3164,1.176-0.4728,1.9104-0.4728c1.1952,0,2.6208,0.414,4.1404,1.2268l148.8244,79.57  c2.3084,1.2344,3.742,2.7736,3.742,4.0236C168.7967,94.0542,167.3631,95.5934,165.0547,96.8278z"/></svg>