<?xml version="1.0" encoding="iso-8859-1"?>
<!-- Generator: Adobe Illustrator 16.0.0, SVG Export Plug-In . SVG Version: 6.00 Build 0)  -->
<!DOCTYPE svg PUBLIC "-//W3C//DTD SVG 1.1//EN" "http://www.w3.org/Graphics/SVG/1.1/DTD/svg11.dtd">
<svg version="1.1" id="Capa_1" xmlns="http://www.w3.org/2000/svg" xmlns:xlink="http://www.w3.org/1999/xlink" x="0px" y="0px"
	 width="612px" height="612px" viewBox="0 0 612 612" style="enable-background:new 0 0 612 612;" xml:space="preserve">
<g>
	<g>
		<path fill="white" d="M542.454,365.03h-37.721l-31.268,41.95l-32.075-41.95h-10.57v28.097l42.646,48.57l41.394-48.57h27.595
			C612,393.127,612,323.303,612,323.303V156.394c0,0,0-69.545-69.546-69.545H264.273c-69.546,0-69.546,69.49-69.546,69.49
			l27.818,0.056c0,0,0-41.728,41.728-41.728h278.181c41.728,0,41.728,41.728,41.728,41.728v166.909
			C584.182,323.303,584.182,365.03,542.454,365.03z"/>
		<path fill="white" d="M0,239.793v166.965c0,0,0,69.823,69.545,69.823h14.326l49.043,48.57l48.015-48.57h166.798
			c69.545,0,69.545-69.823,69.545-69.823V239.849c0,0,0-69.546-69.545-69.546H69.545C0,170.303,0,239.793,0,239.793z
			 M389.454,239.849v166.909c0,0,0,42.005-41.727,42.005H176.785l-44.287,42.701l-41.728-42.701H69.545c0,0-41.727,0-41.727-42.005
			V239.849c0-41.728,41.727-41.728,41.727-41.728h278.182C389.454,198.121,389.454,239.849,389.454,239.849z"/>
	</g>
</g>
</svg>
